<svg
        xmlns="http://www.w3.org/2000/svg" viewBox="841.5 -108.5 86.966 32">
    <defs>
        <style>.a{fill:#fff;}.b{fill:#f26522;}</style>
    </defs>
    <g transform="translate(651.5 -251.5)">
        <path class="a" d="M132.878,0c.514.069,1.063.137,1.577.24,6.65,1.337,11.037,5.279,12.785,11.825A15.79,15.79,0,0,1,135.415,31.5a15.5,15.5,0,0,1-15.185-4.525c-.206-.206-.206-.343-.069-.617.72-1.268,1.405-2.605,2.091-3.873,0,.034.1.137.171.24a11.519,11.519,0,0,0,20.7-4.7,11.514,11.514,0,0,0-22.657-4.113,23.379,23.379,0,0,0-.24,2.708,15.884,15.884,0,0,1-11.791,14.808,15.63,15.63,0,0,1-15.39-4.079c-.206-.206-.377-.411-.548-.548.754-1.474,1.474-2.914,2.159-4.216a32.581,32.581,0,0,0,2.434,2.434A11.512,11.512,0,0,0,115.637,18a31.042,31.042,0,0,0,.24-3.119,15.5,15.5,0,0,1,4.25-9.735,15.766,15.766,0,0,1,9.837-4.97l.72-.1C131.4,0,132.124,0,132.878,0Z" transform="translate(129.196 143)"/>
        <path class="a" d="M17.158,0c.548.1,1.1.171,1.645.274a15.9,15.9,0,0,1,8.946,4.9c.034.034.034.069.034.034C27.03,6.684,26.31,8.089,25.59,9.529a.748.748,0,0,1-.137-.171,11.344,11.344,0,0,0-8.055-4.8A11.53,11.53,0,1,0,27.338,18.3a32.4,32.4,0,0,0,.343-3.668,15.55,15.55,0,0,1,4.01-9.255A15,15,0,0,1,41.358.171c.308-.034.617-.1.96-.171h2.3c.548.069,1.063.171,1.611.274a15.852,15.852,0,0,1,8.981,4.867c.034.034.069.1.034.069-.754,1.44-1.474,2.879-2.228,4.285a1.9,1.9,0,0,1-.206-.274,11.5,11.5,0,0,0-20.669,4.867c-.171,1.131-.171,2.262-.274,3.393A15.409,15.409,0,0,1,27.716,26.8a15.389,15.389,0,0,1-9.529,5A15.966,15.966,0,0,1,11.023.823,29.258,29.258,0,0,1,14.553.1l.308-.1Z" transform="translate(189.97 143)"/>
        <path class="b" d="M114.4,37.054V33.524a1.26,1.26,0,0,1,2.022-1.2c2.159,1.2,4.353,2.365,6.513,3.565a1.346,1.346,0,0,1,.857,1.165,1.184,1.184,0,0,1-.651,1.131c-2.3,1.268-4.593,2.536-6.89,3.77a1.23,1.23,0,0,1-1.851-1.2Q114.4,38.905,114.4,37.054Z" transform="translate(114.802 121.919)"/>
    </g>
</svg>
